<svg width="81" height="81" viewBox="0 0 81 81" fill="none" xmlns="http://www.w3.org/2000/svg">
<path d="M79.1032 40.5C79.1032 19.1795 61.8195 1.89582 40.499 1.89582C19.1785 1.89582 1.89484 19.1795 1.89484 40.5C1.89484 61.8205 19.1785 79.1042 40.499 79.1042C61.8195 79.1042 79.1032 61.8205 79.1032 40.5ZM80.499 40.5C80.499 62.5915 62.5905 80.5 40.499 80.5C18.4076 80.5 0.499023 62.5915 0.499023 40.5C0.499023 18.4085 18.4076 0.5 40.499 0.5C62.5905 0.5 80.499 18.4085 80.499 40.5Z" fill="#003366"/>
<circle cx="40.9834" cy="40.4834" r="28.2286" fill="#003366" stroke="#003366" stroke-width="0.542871"/>
<g clip-path="url(#clip0_2432_72781)">
<path d="M57.4617 35.6476L55.2099 37.9941V57.5456C55.2099 60.752 53.6454 61.1842 52.3939 61.8635L40.5942 67.5874L28.5764 61.8398C27.4149 61.246 25.9121 60.7567 25.9121 57.5456V37.9894L23.5986 35.6428L24.2244 34.6548H56.8976L57.4617 35.6476Z" stroke="#FAFAFA" stroke-width="0.503448" stroke-miterlimit="2" stroke-linecap="square"/>
<path d="M6.82683 41.4748L5.70801 42.2871L6.10624 40.9808L5.07275 40.1781H6.35749L6.7652 38.9763L7.1729 40.1496L8.53824 40.1448L7.45735 40.9523L7.86505 42.2491L6.82683 41.4748Z" fill="#003366"/>
<path d="M45.5729 7.65891L45.2268 9.44971L44.1934 9.26446L44.876 4.86584L48.0428 5.28385L47.9196 6.17688L45.8526 5.86812L45.663 6.79439L47.3554 7.0699L47.199 7.90117L45.5729 7.65891Z" fill="#003366"/>
<path d="M34.535 9.84814L33.895 6.39481L32.5486 6.60856L32.3779 5.70129L36.0852 5.06002L36.2843 5.94829L34.8953 6.23805L35.521 9.69139L34.535 9.84814Z" fill="#003366"/>
<path d="M30.6786 6.20977L31.4277 8.58483L29.2706 6.60878L28.0522 6.97929L29.4365 11.2021L30.4653 10.8649L29.7162 8.39958L32.1245 10.4374L33.0442 10.1951L31.8401 5.87251L30.6786 6.20977Z" fill="#003366"/>
<path d="M54.3034 10.2816C54.0237 10.7756 53.9194 10.8231 53.5544 11.1461C53.0234 11.4549 51.8382 11.5879 51.1129 10.8991C50.672 10.4384 50.3165 9.84936 50.269 9.23184C50.2169 8.09656 50.8616 7.04204 52.0231 6.60978C52.7248 6.36277 53.469 6.49102 54.0711 6.88528C54.6732 7.37929 55.0003 8.08706 54.7965 8.78533L53.8199 8.53833C53.8388 8.21057 53.8388 7.99681 53.5923 7.72606C53.2652 7.3793 52.5825 7.28904 52.1132 7.68805C51.6391 8.15831 51.5206 8.45757 51.4116 9.13209C51.4116 9.6261 51.7055 10.0299 52.1369 10.3149C52.7674 10.4336 53.0329 10.2911 53.2699 9.93961L54.3034 10.2816Z" fill="#003366"/>
<path d="M26.3864 11.6058L28.4818 10.6178L28.8895 11.4823L25.8222 12.8599L23.8501 8.83176L26.9742 7.43047L27.3251 8.19524L25.1965 9.14051L25.5425 9.91004L27.3772 9.08352L27.766 9.91004L25.9502 10.6511L26.3864 11.6058Z" fill="#003366"/>
<path d="M24.3238 13.6967L22.9964 11.6257L23.7312 14.0435L22.9158 14.6277L20.7256 12.9319L22.3232 15.1217L21.4794 15.7393L18.853 12.1624L20.1378 11.2361C20.7398 11.7777 21.7733 12.6374 22.4228 13.0554L21.6738 10.1579L22.7072 9.50235L25.1867 13.1552L24.3238 13.6967Z" fill="#003366"/>
<path d="M61.5637 16.5425L60.8763 15.925L62.5972 13.7969L60.279 15.2789L59.5584 14.7564L60.2458 12.2294L58.9326 14.2957L58.1172 13.7114L60.5255 10.0728L61.559 10.7188L60.7767 13.8349L63.4695 12.1059L64.4698 12.9989L61.5637 16.5425Z" fill="#003366"/>
<path d="M16.1616 15.5967L15.5596 14.8795L18.4893 12.4616L19.0345 13.1457L18.0627 14.0387L20.2908 16.656L19.4707 17.3115L17.2805 14.661L16.1616 15.5967Z" fill="#003366"/>
<path d="M71.1915 20.9257L70.452 21.4149L69.2099 19.6194L68.5699 20.0896L69.6982 21.7854L68.9776 22.1845L67.8825 20.5172L67.1003 21.1014L68.3092 22.8732L67.5696 23.3862L65.7539 20.7642L69.2573 18.1373L71.1915 20.9257Z" fill="#003366"/>
<path d="M7.62194 28.3794L8.45631 26.4746L7.62194 26.0851L6.34668 29.0966L10.4522 30.8257L11.6468 27.8949L10.803 27.5576L9.95912 29.4386L9.08209 29.0681L9.83112 27.3391L9.0489 26.9401L8.27142 28.6786L7.62194 28.3794Z" fill="#003366"/>
<path d="M73.7202 29.1427C73.9904 28.9099 74.4645 28.2354 74.1137 27.7652C73.7676 27.2711 73.4453 27.3376 73.0423 27.2664C72.2933 27.3424 71.5347 27.5229 71.2361 28.2924C71.0891 28.7484 71.1413 29.0952 71.3925 29.3422C71.6675 29.5892 71.9851 29.6795 72.3454 29.6367L72.6441 30.5725C72.1416 30.867 71.3925 30.5582 70.89 30.2352C70.1647 29.5464 70.0462 28.5679 70.2642 27.8934C70.6387 26.8769 71.6675 26.3591 72.5682 26.1834C73.4879 26.1644 73.9241 26.1644 74.4882 26.6251C75.1756 27.3044 75.1851 27.7176 75.2088 28.3827C75.1851 29.0477 74.7727 29.6842 74.1469 29.9787L73.7202 29.1427Z" fill="#003366"/>
<path d="M76.4699 33.6132L75.6971 30.4306L71.3262 31.4994L72.1416 34.6772L72.9902 34.454L72.4545 32.3639L73.36 32.1169L73.8625 33.9362L74.6731 33.751L74.2654 31.9317L75.1093 31.7179L75.6118 33.846L76.4699 33.6132Z" fill="#003366"/>
<path d="M75.3621 41.4324L74.2433 42.2446L74.6463 40.9383L73.6128 40.1356H74.8975L75.3052 38.9338L75.7129 40.1071L77.0783 40.1023L75.9974 40.9098L76.4051 42.2066L75.3621 41.4324Z" fill="#003366"/>
<path d="M9.77559 47.5036L10.0743 48.4678L7.02122 49.3561C6.61826 49.5556 6.57559 50.0354 6.70359 50.3821C6.92167 50.9997 7.7987 50.7527 8.32967 50.5959L10.5199 49.9499L10.7996 50.8857L7.69915 51.7074C6.57085 51.9544 5.92611 51.2087 5.69856 50.7527C5.45204 49.9736 5.45204 49.0806 6.54715 48.5248L9.77559 47.5036Z" fill="#003366"/>
<path d="M72.2686 51.7216C71.7661 51.6978 71.1925 51.8926 71.0692 52.4341C70.9175 52.8758 71.1688 53.2986 71.4959 53.6169C72.0458 53.9114 72.6716 54.2344 73.3495 54.0111C73.7003 53.9114 73.9279 53.5694 74.0275 53.2463C74.0037 52.8996 73.9279 52.5813 73.6008 52.3581L73.9516 51.4223C74.402 51.5933 74.8286 51.9401 74.9282 52.4341C75.1273 53.1751 74.876 53.8639 74.4541 54.4339C73.9042 55.0276 73.2026 55.2746 72.3492 55.1511C71.3963 55.0039 70.5477 54.4101 70.1732 53.4981C70.0215 52.7808 70.1495 52.0398 70.5477 51.4745C71.074 50.9045 71.7993 50.61 72.5768 50.8333L72.2686 51.7216Z" fill="#003366"/>
<path d="M8.4481 56.6807L12.5536 54.9754L12.0511 54.0111L9.79921 54.9374L11.4537 52.4341L11.0555 51.5933L7.02588 53.3223L7.36247 54.2296L9.74232 53.3366L8.02143 55.7734L8.4481 56.6807Z" fill="#003366"/>
<path d="M72.8943 57.3179L68.9121 55.3988L69.3862 54.4345L73.4253 56.3583L72.8943 57.3179Z" fill="#003366"/>
<path d="M9.00195 57.5685L12.9036 55.6494L13.3871 56.5092L9.55662 58.5518L9.00195 57.5685Z" fill="#003366"/>
<path d="M69.8108 62.0864L67.6348 64.6895L64.3779 61.8536L66.3501 59.4168L66.9806 59.8918L65.6295 61.5734L66.2221 62.0674L67.4547 60.5331L68.1326 61.0271L66.9095 62.5946L67.6917 63.2407L69.0381 61.5734L69.8108 62.0864Z" fill="#003366"/>
<path d="M62.6925 66.1042L64.2332 67.8807L63.4747 68.541L60.6255 65.2682L61.6874 64.3799L63.9725 65.5817L63.0954 63.1449L63.9108 62.3421L66.9449 65.3964L66.1295 66.1565L64.5034 64.4084L65.5653 66.66L64.9301 67.2395L62.6925 66.1042Z" fill="#003366"/>
<path d="M23.2892 70.2992C22.9146 71.0402 23.4029 71.2682 23.7253 71.4392C24.0003 71.5152 24.5075 71.6577 24.6213 71.0877C24.2942 70.2232 22.6444 69.6056 23.1706 68.3469C23.3223 67.9763 23.7206 67.7056 24.0714 67.5821C24.7967 67.4823 25.3466 67.7293 25.8729 68.0523C26.4465 68.4989 26.8257 69.1544 26.3849 69.9904L25.4794 69.5581C25.4794 69.5581 26.0009 68.9834 25.1049 68.5701C24.3843 68.3231 24.1994 68.7839 24.2894 69.0309C24.7635 69.9952 26.2616 70.5129 25.6026 71.8049C25.1523 72.3987 24.5834 72.565 23.8817 72.3892C23.2323 72.166 22.6729 72.0567 22.194 71.2159C21.9949 70.7979 22.0708 70.2279 22.4121 69.7339L23.2892 70.2992Z" fill="#003366"/>
<path d="M55.3052 68.6028L52.437 69.8569L54.0631 73.9277L55.0397 73.5192L54.4139 71.9754L56.0921 71.2107L55.6797 70.3604L54.1484 71.0682L53.8166 70.2701L55.6797 69.4294L55.3052 68.6028Z" fill="#003366"/>
<path d="M65.2422 20.166L64.6354 19.4725L66.6075 17.5677L64.1281 18.76L63.4787 18.152L64.4742 15.7247L62.9145 17.6199L62.1797 16.9407L65.0194 13.6203L65.9628 14.3851L64.8013 17.3824L67.6884 15.9907L68.5702 16.9977L65.2422 20.166Z" fill="#003366"/>
<path d="M12.855 57.4458L13.6325 56.9185L15.8227 60.0061L15.0832 60.4811L14.263 59.4503L11.4233 61.4121L10.8354 60.5476L13.7083 58.6285L12.855 57.4458Z" fill="#003366"/>
<path d="M16.3043 61.8054L17.7313 63.3302L18.4282 62.7364L16.1573 60.3614L12.8862 63.354L15.1144 65.6245L15.7733 65.0022L14.3748 63.4775L15.0765 62.8409L16.3707 64.2185L17.0581 63.677L15.7639 62.2709L16.3043 61.8054Z" fill="#003366"/>
<path d="M26.7705 69.8233L27.1308 68.9635L30.6721 70.3791L30.3118 71.1724L29.1409 70.7258L27.823 73.8989L26.7895 73.5094L28.0742 70.3791L26.7705 69.8233Z" fill="#003366"/>
<path d="M33.2827 72.0038L33.4534 71.0918L37.2175 71.7473L37.0374 72.5976L35.8001 72.4028L35.1743 75.7754L34.0792 75.6044L34.6765 72.2793L33.2827 72.0038Z" fill="#003366"/>
<path d="M38.7908 72.6795L40.8909 72.7982L40.9762 71.8957L37.6672 71.7437L37.4302 76.1328L40.6349 76.2373L40.6681 75.3395L38.5869 75.2018L38.6391 74.2613L40.5448 74.3658L40.6586 73.506L38.7339 73.3825L38.7908 72.6795Z" fill="#003366"/>
<path d="M42.5119 74.7925C42.5641 75.619 43.1662 75.619 43.5359 75.6047C43.7635 75.5477 44.2233 75.2675 44.0669 74.8162C43.3463 74.2272 41.6017 74.5075 41.4216 73.1584C41.3647 72.7642 41.5733 72.3319 41.815 72.0516C42.3934 71.6099 42.9955 71.5529 43.6118 71.5719C44.3371 71.6716 44.9961 72.0611 45.0387 72.9969L44.0337 73.0682C44.0337 73.0682 44.1949 72.3177 43.2088 72.3984C42.4598 72.5409 42.5309 73.0349 42.7395 73.2012C43.6544 73.8092 45.181 73.2534 45.2853 74.9587C45.1952 75.695 44.797 76.1795 44.1001 76.3743C43.389 76.5595 42.877 76.6213 42.0331 76.132C41.6491 75.866 41.4263 75.3387 41.4737 74.7402L42.5119 74.7925Z" fill="#003366"/>
<path d="M42.5233 7.8249C42.3005 8.21916 41.8217 8.51367 41.3239 8.31891C40.9209 8.19541 40.774 7.7774 40.6744 7.43064C40.5511 6.91287 40.5749 6.29536 40.902 5.87735C41.3523 5.21233 42.4048 5.58284 42.6039 6.24786C42.6987 6.78937 42.6987 7.30714 42.5233 7.8249ZM43.1254 5.11258C42.6513 4.59482 41.9971 4.44756 41.2717 4.51881C40.5464 4.64232 39.7926 5.30733 39.5935 6.00085C39.366 6.91287 39.3944 8.0244 40.0676 8.71317C40.518 9.08368 40.992 9.45419 41.6178 9.37819C42.5423 9.40194 43.3719 8.73692 43.7227 7.9484C43.974 6.96038 43.8744 5.8251 43.1254 5.11258Z" fill="#003366"/>
<path d="M57.651 11.5446C57.3049 12.1289 56.6981 12.3521 56.1482 12.1289C55.622 11.8819 55.584 11.2643 55.6883 10.7371C55.84 10.1433 56.2382 9.53054 56.8925 9.37854C57.3997 9.35479 57.8785 9.50679 57.9923 10.0341C58.144 10.5993 57.9022 11.0506 57.651 11.5446ZM58.3953 8.91303C57.7458 8.37152 56.6412 8.17201 55.8685 8.61852C54.816 9.21228 54.3799 10.5138 54.4937 11.4258C54.6501 12.1669 55.0578 12.5659 55.6931 12.9364C56.5274 13.3354 57.0584 13.1549 57.8406 12.8461C58.7698 12.3759 59.0258 11.5683 59.1254 10.6563C59.1443 9.9818 58.8457 9.35479 58.3953 8.91303Z" fill="#003366"/>
<path d="M14.995 18.3269L14.2128 17.6809C14.4641 17.3104 14.8054 16.8496 15.0567 16.8306C15.4644 16.6644 15.526 16.8164 15.7156 17.0967C15.8863 17.4957 15.2984 17.9849 14.995 18.3269ZM17.8869 18.9017L18.489 18.1844C17.8632 17.9137 17.3796 17.2344 16.531 17.3104C16.6875 16.7261 16.4647 16.3604 16.2134 16.0659C14.8433 14.9068 13.3405 17.2487 12.7764 17.9612L16.1613 20.854L16.8107 20.0892L15.6587 19.03L16.2466 18.3649C16.9767 18.0134 17.2611 18.8779 17.8869 18.9017Z" fill="#003366"/>
<path d="M12.9945 22.281L12.1791 21.2312L13.4923 21.6018L12.9945 22.281ZM11.2783 19.9155L10.6763 20.8275L13.3785 24.5278L13.99 23.6348L13.5539 22.9555L14.3361 21.7823L15.18 22.034L15.782 21.1457C14.284 20.7562 12.7812 20.3382 11.2783 19.9155Z" fill="#003366"/>
<path d="M71.3568 24.6834C71.153 24.4839 70.9491 24.0992 70.7642 23.6954L71.4896 23.2964C71.7361 23.6384 72.0632 23.9899 72.0395 24.4792C71.9542 24.7452 71.7124 24.9495 71.3568 24.6834ZM71.7361 21.7241L67.9482 23.9139L68.4792 24.9304L69.9394 24.1847C70.2001 24.5314 70.3139 24.7262 70.3376 25.073C70.1859 25.5907 69.6976 25.8567 69.2093 26.1322L69.6359 27.0728C70.5414 26.6262 71.0866 26.3317 71.3616 25.5907L71.6034 25.7332C72.1343 25.89 72.4946 25.7095 72.7933 25.4577C73.7983 24.3747 72.3666 22.7691 71.7361 21.7241Z" fill="#003366"/>
<path d="M10.4581 25.0536L9.47672 24.5311C9.57628 24.2081 9.70428 23.8138 10.0788 23.6428C10.4059 23.6191 10.7804 23.7663 10.8041 24.1131C10.7804 24.4551 10.6335 24.7829 10.4581 25.0536ZM11.3541 25.5381C11.4584 25.1154 12.1221 24.3554 11.7523 23.4671C11.4536 22.8781 10.8515 22.5313 10.2021 22.5313C8.77509 22.6786 8.61391 24.1606 8.09717 25.1201L11.9893 27.1484L12.5535 26.1794L11.3541 25.5381Z" fill="#003366"/>
<path d="M8.83134 33.4419L6.34246 32.8102C6.52734 31.9267 6.87342 31.5324 7.42334 31.4992C8.14868 31.4754 8.83134 31.7414 8.98779 32.3019C9.06364 32.7199 8.92616 33.1047 8.83134 33.4419ZM9.90275 31.7082C9.33386 30.6726 7.74572 30.1264 6.42305 30.6964C5.51757 31.1571 5.28527 32.5822 5.10986 33.594L9.55194 34.6675C9.81742 33.689 10.3342 32.4729 9.90275 31.7082Z" fill="#003366"/>
<path d="M74.2127 49.7875L72.928 49.0323L74.4166 49.0418L74.2127 49.7875ZM76.2133 49.1035L76.5357 47.9112L71.885 48.2152L71.6006 49.2603L75.507 51.8301L75.7961 50.7518L74.8812 50.1913L75.1656 49.1463L76.2133 49.1035Z" fill="#003366"/>
<path d="M69.0118 58.9179L68.1679 58.3004C68.6373 57.2838 69.3057 57.0463 69.5143 57.8064C69.4906 58.2054 69.263 58.6234 69.0118 58.9179ZM70.4861 58.5474C71.2684 58.6376 70.9839 58.7754 71.8941 59.1934L72.6479 58.0534C71.5007 57.6211 71.0835 57.0368 70.4245 57.5926C70.4767 57.4454 70.4861 57.2506 70.3629 56.9751C70.1116 56.3861 69.1113 55.8351 68.111 56.8516L66.7979 58.8276L70.3676 61.4497L71.074 60.3999L69.7466 59.4357C69.8651 59.1174 70.1306 58.7231 70.4861 58.5474Z" fill="#003366"/>
<path d="M51.6117 73.6815C51.351 74.109 51.0807 74.2183 50.5119 74.0995C50.0378 73.9285 49.7628 73.3823 49.6111 72.9167C49.4879 72.3372 49.5874 71.6817 50.161 71.3872C50.9243 71.1354 51.4126 71.5582 51.6117 72.152C51.735 72.646 51.863 73.2112 51.6117 73.6815ZM52.0099 70.8409C51.4079 70.2994 50.3317 70.0999 49.6064 70.5464C48.753 70.9929 48.3785 71.8527 48.4781 72.7932C48.5018 73.5913 49.0896 74.6743 49.905 74.9878C50.7062 75.2586 51.5833 75.0638 52.209 74.5698C52.612 74.1233 52.8111 73.7005 52.8585 73.1067C52.8301 72.2755 52.7116 71.563 52.0099 70.8409Z" fill="#003366"/>
<path d="M19.744 66.0184C19.4358 66.6692 18.8859 67.1442 18.3075 67.0302C17.8951 66.9067 17.6106 66.6122 17.3451 66.3746L19.0471 64.4746C19.7629 65.0446 19.962 65.5244 19.744 66.0184ZM18.8954 63.0353L15.9087 66.4506C16.672 67.1299 17.5395 68.1369 18.426 68.1037C19.6207 68.0752 20.8343 66.9257 20.9197 65.5054C20.9149 64.4983 19.7345 63.6481 18.8954 63.0353Z" fill="#003366"/>
<path d="M30.8444 73.3063L31.6171 72.0618L31.6503 73.5106L30.8444 73.3063ZM32.8734 75.4106L32.5226 70.917L31.4607 70.6083L28.8296 74.3419L29.9579 74.7124L30.3893 73.9666L31.712 74.3134V75.1446L32.8734 75.4106Z" fill="#003366"/>
<path d="M60.1947 69.0356L59.7254 67.6534L60.8727 68.5606L60.1947 69.0356ZM59.422 66.2331L58.4976 66.8363L59.7064 71.2207L60.721 70.6079L60.4176 69.8052L61.5364 69.0309L62.1859 69.5677L63.1435 68.8599L59.422 66.2331Z" fill="#003366"/>
<path d="M37.3339 25.011C36.9072 25.0348 36.4568 25.2343 36.0586 25.011C35.9069 24.7878 35.6319 24.7165 35.7078 24.4695C36.0823 25.011 36.8835 24.9113 37.3339 25.011Z" fill="#FAFAFA"/>
<path d="M41.623 25.7146C41.5234 25.8144 41.3954 25.9854 41.2721 25.8381L41.1963 25.6671C41.3954 25.9854 41.623 25.2206 41.623 25.7146Z" fill="#FAFAFA"/>
<path d="M41.6246 26.431C41.5724 26.5308 41.4729 26.4785 41.397 26.4785C41.3212 26.431 41.2216 26.355 41.2738 26.2553C41.3733 26.3788 41.7716 25.9607 41.6246 26.431Z" fill="#FAFAFA"/>
<path d="M37.1386 20.5789C37.7122 21.0729 38.063 21.738 37.916 22.4552C37.6648 22.802 37.6174 23.296 37.7406 23.714C37.8639 23.9373 38.1152 24.1558 38.3427 24.3078C38.9448 24.4313 39.3193 23.9373 39.6464 23.543C39.8218 23.125 40.4239 22.2367 39.5469 22.1132L39.4236 21.9897L39.2482 22.3602C38.8737 22.2842 38.9495 21.8425 38.9495 21.5195C38.8974 21.2724 39.0728 20.9494 39.3525 20.9779C39.7033 21.1252 39.9783 21.0017 40.2011 20.7547C40.9264 20.7072 41.6043 20.9779 42.1306 21.3484C41.7797 21.4957 42.2064 21.89 42.0547 22.1132C42.1306 22.5312 42.178 22.707 42.2538 23.125H42.1306C42.6568 23.4955 41.9314 25.0725 43.3347 24.607C44.2117 23.4955 42.6568 22.5075 43.2589 21.2772L43.7566 20.5837C45.9089 18.8546 48.6396 18.1421 50.5406 16.0188C50.8914 17.0781 49.7157 17.8429 48.962 18.5601C47.5587 19.7429 45.6577 20.0422 44.5815 21.643C44.5578 21.966 44.5578 22.4552 44.956 22.4552H45.1314C44.8565 22.479 44.7048 22.6547 44.7569 22.9492C45.0556 23.2722 44.482 23.6428 44.7569 24.0608C44.6052 24.0608 44.6574 24.2318 44.5815 24.3078C45.1314 24.4835 45.4349 23.7663 45.9611 23.7663C45.8852 24.113 45.5107 24.2603 45.2594 24.4313C44.7854 24.5785 44.3303 24.3078 44.1074 24.9015C44.5341 25.0725 44.7854 24.5548 45.2594 24.6545C44.8565 25.1961 44.0079 25.0963 43.458 25.196C43.458 24.949 43.8325 25.0488 43.932 24.778C45.1362 23.7663 43.7092 22.213 44.6574 21.1014C46.3356 19.5957 48.4357 18.9069 49.9907 17.2016L49.9386 17.1256L44.0553 20.6787C43.5291 21.0729 43.3063 21.567 43.33 22.1607C43.3821 23.0252 44.5057 24.2318 43.33 24.8255C43.1546 24.949 42.927 24.873 42.7279 24.9015C42.6283 25.0725 42.7042 25.3718 42.4292 25.4193C42.6046 25.6188 42.7563 25.8896 42.6046 26.1366C42.5051 26.4596 42.1543 26.6543 41.9552 26.9013C41.9789 27.0248 42.1069 26.9536 42.1827 26.9773L42.434 26.6828C42.5857 26.8538 42.4103 27.2481 42.1353 27.2766C42.0073 27.3004 41.9599 27.2291 41.884 27.1531C41.9836 26.8348 41.7608 26.8063 41.7608 26.5118C41.8366 26.5593 41.9125 26.6591 42.012 26.6116C42.287 26.5118 42.012 26.3408 42.012 26.2173C42.14 26.1176 42.4861 26.1413 42.4387 25.8468C42.287 25.8468 41.9883 25.8706 41.9646 25.6236V25.5001C42.0405 25.4763 42.0642 25.5761 42.14 25.6236C42.6663 25.4241 41.8414 25.0583 42.3629 24.9063C42.0879 24.7353 41.8129 25.4003 41.7134 24.7828C41.7655 24.8825 41.8651 24.8303 41.9646 24.8303C41.9883 24.7305 42.1163 24.683 42.0642 24.5358C41.8651 24.5358 41.6612 24.3363 41.4621 24.4883L41.5854 24.1415C41.7845 24.1415 42.012 24.4883 42.1874 24.1938L42.2633 24.1415C41.9125 23.8708 41.3863 23.8708 41.1634 23.5478C41.2867 23.5478 41.3626 23.6713 41.4621 23.7188C41.5143 23.619 41.6375 23.5478 41.5854 23.4243C41.6375 23.524 41.7371 23.6238 41.8366 23.7188H41.9599C42.0594 23.3958 41.7845 23.0537 41.4574 22.954C41.3341 23.2485 41.1824 22.9065 41.0544 22.8827L40.9786 22.707C41.0307 22.6072 41.1777 22.954 41.3531 22.8827L41.4526 22.6595C41.5522 22.783 41.7039 22.8305 41.8272 22.8827C41.8793 22.6832 41.7513 22.4125 41.5759 22.2415L41.8746 22.1655C41.5996 21.871 41.6992 21.624 41.6517 21.3532C41.2014 21.2059 40.751 20.7879 40.2485 21.1062C40.348 21.5527 40.8506 21.2059 41.0497 21.5242C40.5756 22.3365 39.6227 20.4649 39.0491 21.5242C39.0728 21.6715 38.9969 21.871 39.1723 21.9422C39.2245 21.5242 39.7744 21.5005 40.0257 21.6952C40.1252 21.7427 40.0494 21.8662 40.0778 21.9422C39.9261 21.9185 39.7507 21.719 39.6037 21.8662C39.9546 22.1607 40.4571 22.46 40.0778 23.0015C39.8787 23.1487 40.2011 23.2247 40.1537 23.3483L39.6037 23.5953C39.6559 23.7188 39.855 23.5953 39.855 23.7663L39.6559 23.9373L39.9546 24.0133C39.8313 24.1605 39.6274 24.2128 39.4283 24.1843L39.3525 24.132C39.2529 24.1558 39.3288 24.2793 39.3003 24.3553C38.85 24.3553 38.3759 24.626 37.9729 24.3553C37.5463 23.9848 37.295 23.4908 37.4989 22.9492C37.7501 22.5312 37.7975 21.985 37.6743 21.5195C35.8443 19.6194 33.3175 18.9021 31.2411 17.3251L30.7149 16.8311C30.4873 17.0306 30.8903 17.1256 30.8381 17.3251C32.7392 19.6432 37.1717 19.7429 36.8968 23.543C37.0722 24.0608 37.5463 24.531 38.1009 24.7258H38.6509C38.6272 24.949 38.703 25.3908 38.3522 25.4906C37.9492 25.2198 37.9018 25.7376 37.551 25.7138C37.148 25.9133 36.7735 25.6663 36.4227 25.4906V25.3196C36.7735 25.12 36.8494 25.6141 37.148 25.6141C37.4752 25.6378 37.7501 25.5143 37.9729 25.3196L37.8497 25.196C38.0014 25.196 38.4233 25.2198 38.575 24.949C38.3 24.778 37.7738 24.8493 37.4467 24.6545C36.3706 23.9895 36.4938 22.802 36.418 21.8187C35.9913 21.6477 36.418 21.4482 36.1193 21.2249C34.3937 19.7192 32.2651 19.1254 30.5869 17.5008C30.3119 17.0306 29.9611 16.4416 30.2882 15.8953C32.1608 18.1659 34.9104 18.8309 37.1386 20.5789Z" fill="#FAFAFA"/>
<path d="M48.7825 19.667L45.4023 21.396C47.0284 19.743 49.8823 19.6195 50.712 17.0781C50.6835 18.1137 49.6832 19.0779 48.7825 19.667Z" fill="#FAFAFA"/>
<path d="M32.0865 19.3212L35.0922 20.8032C33.4234 19.9815 30.8966 19.5967 30.4604 17.5969C30.9819 18.1622 31.3612 18.9269 32.0865 19.3212Z" fill="#FAFAFA"/>
<path d="M49.6841 19.9663C49.357 20.1658 49.0583 20.3605 48.7075 20.4365C49.1105 20.0898 49.7837 19.7953 49.9828 19.2015L49.5087 19.3725L50.4616 18.4367C50.5849 19.1017 50.0586 19.5197 49.6841 19.9663Z" fill="#FAFAFA"/>
<path d="M31.7817 19.6195C31.6063 19.5198 31.4546 19.42 31.2792 19.325C31.0801 19.5245 31.4024 19.648 31.4783 19.7953C31.8623 20.1706 32.3364 20.3748 32.9053 20.6836C32.507 20.7073 31.9808 20.3606 31.5304 20.1421C31.5304 20.4651 32.0045 20.4888 32.1799 20.7358L31.8291 20.5648C32.0282 21.1063 32.8057 21.4293 33.3319 21.7476C33.4552 21.7001 33.531 21.8236 33.6306 21.8711C32.8057 21.7951 31.777 21.3533 31.2792 20.4413L31.227 20.1468H31.5257C31.0232 19.8 30.8478 19.2823 30.6724 18.7883C31.0801 19.002 31.4072 19.3488 31.7817 19.6195Z" fill="#FAFAFA"/>
<path d="M49.6839 21.0255C49.0818 21.567 48.4324 21.9375 47.6312 21.9897C47.5079 21.8187 47.579 21.4957 47.8066 21.5195H47.9346V21.6192C48.6125 21.5955 49.3615 21.1252 49.7361 20.4365C49.4611 20.389 49.2098 20.7595 48.9112 20.8545L50.1627 19.7952C50.2623 20.3082 50.011 20.7025 49.6839 21.0255Z" fill="#FAFAFA"/>
<path d="M33.5881 20.6797C34.1618 21.2212 34.8634 21.5204 35.565 21.8149C34.4225 21.5727 33.2231 21.0882 32.8628 20.0859C33.3084 20.0384 33.3084 20.4564 33.5881 20.6797Z" fill="#FAFAFA"/>
<path d="M48.4074 20.0911C48.1087 21.4496 46.5775 21.8439 45.4018 22.1621L45.3496 22.1146C46.2504 21.7203 47.3265 21.5493 47.8764 20.5613L46.9757 20.9318C47.4829 20.7038 47.8575 20.1861 48.4074 20.0911Z" fill="#FAFAFA"/>
<path d="M34.4112 21.9894C34.8853 22.2839 35.3641 22.5831 35.914 22.7066C34.9943 22.7589 34.1979 22.0796 33.7617 21.5714L33.8139 21.4003C34.1836 21.4193 34.1836 21.7661 34.4112 21.9894Z" fill="#FAFAFA"/>
<path d="M32.9873 21.99C32.8878 21.99 32.8119 21.8427 32.7361 21.99C32.9684 22.389 33.5752 22.8165 34.2389 22.9258C33.4614 22.902 32.4611 22.484 32.0107 21.6195V21.4485C32.3616 21.5672 32.6602 21.8142 32.9873 21.99Z" fill="#FAFAFA"/>
<path d="M45.3019 22.9258L45.2261 22.8783C45.9799 22.6313 46.8284 22.2845 47.4068 21.6955C47.1556 22.579 46.1031 22.8023 45.3019 22.9258Z" fill="#FAFAFA"/>
<path d="M49.1325 21.691C48.5826 22.6553 47.5301 23.1493 46.4256 23.1731C46.1269 23.6433 45.6244 23.7146 45.0981 23.6908C45.7239 23.6433 46.051 22.9498 46.601 22.7551V23.0021C47.1509 23.0496 47.6771 22.7313 48.1038 22.3371C47.9047 22.2373 47.7008 22.5081 47.5017 22.5841C47.8288 22.185 48.5589 21.9143 49.1325 21.691Z" fill="#FAFAFA"/>
<path d="M36.0372 23.5196C35.4351 23.5671 34.7619 23.2963 34.4111 22.7073L34.487 22.5078C34.7619 22.6123 35.4541 23.5766 36.0372 23.5196Z" fill="#FAFAFA"/>
<path d="M33.5867 23.1724C33.6484 23.4716 34.1177 23.5809 34.587 23.8137C33.9375 23.9134 33.1838 23.4669 32.7334 22.8779V22.7021L34.1841 23.3434L33.5867 23.1724Z" fill="#FAFAFA"/>
<path d="M48.1081 23.0016C47.9327 23.3959 47.4586 23.6191 47.1078 23.8899C47.2073 24.0372 47.3353 23.8377 47.4586 23.8139C47.5344 24.1844 46.9324 24.5074 46.61 24.7022L46.207 24.8257C46.3587 24.7022 46.6574 24.5312 46.8091 24.3554L46.5104 24.2794L46.9087 24.0562L46.207 23.9802C46.5815 23.9327 46.9845 23.7807 47.2073 23.4624L46.8044 23.3864C47.2547 23.3199 47.653 23.0966 48.1081 23.0016Z" fill="#FAFAFA"/>
<path d="M36.6858 24.3551C36.1358 24.5261 35.5859 24.3314 35.1355 24.0606L34.8843 23.5904C35.4626 23.6616 35.8941 24.4881 36.6858 24.3551Z" fill="#FAFAFA"/>
<path d="M34.237 24.0622C34.1374 24.1145 34.1374 24.2617 34.237 24.2855C34.6115 24.8555 35.6402 24.333 35.6876 25.1737L35.863 25.3733C35.6639 25.4493 35.3131 25.0787 35.261 24.7795C34.4313 24.694 33.6254 24.409 33.4595 23.7677L34.237 24.0622Z" fill="#FAFAFA"/>
<path d="M41.2739 24.2329C41.2976 24.2899 41.1364 24.4989 40.8994 24.6509H40.7999C40.7951 24.5321 41.1459 24.1616 41.2739 24.2329Z" fill="#FAFAFA"/>
<path d="M45.354 25.7615C44.5291 25.885 45.3303 27.1438 44.2778 26.7733L44.7519 26.4266C44.7519 26.2793 44.5006 26.2271 44.5765 26.056C44.7756 26.0085 44.951 25.885 45.1027 25.7093C44.951 25.1678 45.9039 25.1155 45.6526 24.4743L45.8281 24.3508C46.2784 24.9493 45.2023 25.1725 45.354 25.7615Z" fill="#FAFAFA"/>
<path d="M47.2774 24.5797C47.0261 25.2447 46.3245 25.544 45.6987 25.6675C45.9737 25.5677 46.3767 25.3967 46.5473 25.126L46.4241 24.955C46.7038 24.8267 47.0261 24.7792 47.2774 24.5797Z" fill="#FAFAFA"/>
<path d="M35.1897 25.5386C34.7915 25.5148 34.3127 25.3913 34.1895 24.9448V24.7738C34.8295 24.5886 34.7062 25.5386 35.1897 25.5386Z" fill="#FAFAFA"/>
<path d="M41.1436 25.1206L41.2052 24.9211L41.2668 24.9971L41.1436 25.1206Z" fill="#FAFAFA"/>
<path d="M44.7992 25.297C44.7471 25.6675 44.3488 25.715 44.0976 25.8385C43.8226 25.962 43.5239 25.8385 43.2964 25.715C43.7989 25.7387 44.3251 25.468 44.7992 25.297Z" fill="#FAFAFA"/>
<path d="M46.0043 26.356H45.5303C45.7057 26.185 46.1561 26.2562 46.2556 25.8857L45.9048 25.9617L46.9051 25.2967C46.8292 25.7384 46.4026 26.1565 46.0043 26.356Z" fill="#FAFAFA"/>
<path d="M38.6184 25.9606C38.5852 26.0081 38.059 26.0129 37.9689 25.9606C37.9452 25.9084 37.8931 25.8846 37.8931 25.8371C38.0922 25.8134 38.4193 25.8609 38.571 25.5901C38.6705 25.6139 38.5947 25.8371 38.6184 25.9606Z" fill="#FAFAFA"/>
<path d="M36.0382 26.4794C35.7395 26.8024 35.4361 26.4034 35.1375 26.3559C34.9384 26.1849 34.763 25.9141 34.8862 25.6671C35.365 25.6861 35.2512 26.6837 36.0382 26.4794Z" fill="#FAFAFA"/>
<path d="M40.7217 25.7139V25.666H40.846L40.8604 25.6421L40.7217 25.7139Z" fill="#FAFAFA"/>
<path d="M37.8934 26.3093C38.3201 26.1098 38.3959 26.6038 38.7467 26.4328C38.7704 26.5326 38.7467 26.7273 38.5713 26.6561C38.1209 26.2856 37.3672 26.6323 36.9452 26.1383C36.7841 26.2285 36.2247 26.2903 36.1678 26.2618L35.9165 25.8438C36.5897 26.3568 37.2439 25.7868 37.8934 26.3093Z" fill="#FAFAFA"/>
<path d="M44.2799 26.0086C44.0808 26.3791 43.7063 26.5786 43.2559 26.4788L43.1279 26.3553C43.5499 26.3316 43.8248 25.9611 44.2799 26.0086Z" fill="#FAFAFA"/>
<path d="M45.7766 27.0731C45.5253 27.2441 45.3025 27.0493 45.0513 27.0208C45.6249 27.1443 45.9805 26.4793 46.5019 26.3035C46.5304 26.7026 46.0563 26.9211 45.7766 27.0731Z" fill="#FAFAFA"/>
<path d="M37.4197 26.6501C37.3628 26.8449 36.8129 26.7926 36.7702 26.7736L36.647 26.5503C36.865 26.8496 37.1685 26.4553 37.4197 26.6501Z" fill="#FAFAFA"/>
<path d="M38.2672 27.0204C38.3904 26.8731 38.7697 27.0726 38.9166 27.1439C38.7649 27.3386 38.2008 26.8256 37.8405 26.9444C37.7883 26.8446 37.5892 26.6213 37.8405 26.5976L38.2672 27.0204Z" fill="#FAFAFA"/>
<path d="M40.896 26.5502H41.0955V26.5977H40.896V26.5502Z" fill="#FAFAFA"/>
<path d="M43.5474 26.7263C43.5474 26.8308 43.2203 27.1301 43.1966 27.1443C43.0971 27.1206 42.9454 27.1966 42.8979 27.0683L43.4242 26.6503C43.4763 26.7026 43.5 26.7501 43.5474 26.7263Z" fill="#FAFAFA"/>
<path d="M36.2371 27.1975H36.8866C36.6875 27.4683 36.1613 27.6155 35.8626 27.3685C35.6635 27.1975 35.4881 26.9505 35.5639 26.7272C36.038 26.6037 35.7631 27.2213 36.2371 27.1975Z" fill="#FAFAFA"/>
<path d="M38.1917 27.2443C38.1301 27.3773 37.5612 27.4058 37.3668 27.3678C37.2435 27.2681 37.0681 27.097 37.1914 26.9498C37.3668 27.2681 37.893 27.2681 38.1917 27.2443Z" fill="#FAFAFA"/>
<path d="M44.3992 27.3667C44.2523 27.6754 43.7213 27.5187 43.598 27.4902L43.5459 27.4427C43.7687 27.4189 44.148 27.2716 44.1954 26.9486C44.3471 26.9961 44.4229 27.1956 44.3992 27.3667Z" fill="#FAFAFA"/>
<path d="M41.3976 27.0726C41.5067 26.9919 41.0705 27.2247 41.1464 27.2437L41.0942 27.1962L41.3218 27.0204L41.3976 27.0726Z" fill="#FAFAFA"/>
<path d="M45.2259 27.8374C45.0268 27.8137 44.8277 27.8374 44.6997 27.6664C45.3018 27.7661 45.4013 27.0489 46.0034 27.1486C46.0034 27.3909 45.6289 27.8089 45.2259 27.8374Z" fill="#FAFAFA"/>
<path d="M39.0918 27.7396C38.9401 27.8156 38.6414 27.8631 38.4897 27.6636C38.4945 27.6636 38.9686 27.5401 38.9923 27.4926C39.0207 27.5163 39.144 27.6161 39.0918 27.7396Z" fill="#FAFAFA"/>
<path d="M41.6996 27.7383L41.5005 27.4913L41.9272 27.5388L41.6996 27.7383Z" fill="#FAFAFA"/>
<path d="M43.5474 27.9092C43.5806 27.8807 42.9927 28.0898 42.9453 28.0803C42.969 27.857 43.372 27.8332 43.372 27.5387C43.5995 27.5672 43.5474 27.7382 43.5474 27.9092Z" fill="#FAFAFA"/>
<path d="M37.2888 27.7388C37.3125 27.6485 36.6725 28.2756 36.2885 28.0333L36.0894 27.7863C36.4876 27.4158 36.8621 28.0096 37.2888 27.7388Z" fill="#FAFAFA"/>
<path d="M38.1906 27.8367C38.2427 27.7369 38.366 27.8129 38.4418 27.7892C38.4656 27.8129 38.5177 27.8652 38.494 27.9127C38.1953 28.1217 37.9773 27.6514 37.9678 27.6657L38.1906 27.8367Z" fill="#FAFAFA"/>
<path d="M39.3076 28.0084L39.2934 28.2554L38.8667 28.2079C38.8714 28.1081 39.3076 27.5904 39.3076 28.0084Z" fill="#FAFAFA"/>
<path d="M44.9271 28.2558C44.6 28.6501 44.1496 28.2796 43.7988 28.2083C43.8415 28.2036 44.5336 28.2321 44.5763 27.9138C44.728 27.9851 45.0504 27.9328 44.9271 28.2558Z" fill="#FAFAFA"/>
<path d="M36.7646 28.379C36.9164 27.9088 37.4426 28.3315 37.7934 28.0323C37.7934 28.1938 37.1724 28.5405 36.7646 28.379Z" fill="#FAFAFA"/>
<path d="M38.4933 28.0852C38.4175 28.3797 38.2184 28.7028 37.8912 28.8025C37.64 28.9023 37.2655 28.8738 37.1138 28.6315C37.5594 28.3227 38.2041 28.5935 38.389 28.09H38.4933V28.0852Z" fill="#FAFAFA"/>
<path d="M43.9004 28.3785C43.9763 28.6017 44.275 28.426 44.275 28.673C43.872 28.7727 43.3742 28.7727 43.0708 28.426V28.2027C43.3695 28.1362 43.5259 28.54 43.9004 28.3785Z" fill="#FAFAFA"/>
<path d="M42.6475 32.3029C42.5716 32.5736 43.0742 32.8444 43.3728 32.9441C43.9228 33.1911 44.6765 33.1911 45.3023 33.1911C44.7002 33.6092 43.7758 33.4144 43.1974 33.1199C42.7471 33.4666 42.0691 33.4666 41.4955 33.3669C41.2442 33.2434 40.9693 33.1436 40.7939 32.8966C40.718 32.7256 41.0451 32.6259 40.846 32.4786L41.1968 32.6021C41.3722 32.4311 41.0973 31.8849 41.5714 32.0606C41.4955 32.3836 41.87 32.5309 41.998 32.7779C42.0976 32.5071 42.0976 32.2839 42.0502 32.0131C42.2493 32.0796 42.5242 32.0559 42.6475 32.3029Z" fill="#FAFAFA"/>
<path d="M39.8228 30.3261C39.8228 30.4069 39.8228 30.4876 39.8228 30.5684C39.8322 30.4924 39.837 30.4116 39.8228 30.3261Z" fill="#FAFAFA"/>
<path d="M39.9792 32.6157C39.9506 32.6396 39.9171 32.6683 39.8933 32.697L39.8599 32.7305C39.9219 32.697 39.9601 32.6587 39.9792 32.6157Z" fill="#FAFAFA"/>
<path d="M40.1955 32.303L40.0723 32.1795H40.1955V32.303ZM40.5463 32.6973V32.3505C40.4468 32.1273 40.2192 32.0037 39.9964 31.9325C39.8257 32.1415 40.0723 32.417 39.9822 32.6165C40.1623 32.4693 40.4373 32.4645 40.5463 32.6973Z" fill="#FAFAFA"/>
<path d="M43.7247 31.5848C43.3265 31.8318 42.9757 31.3378 42.824 31.0432C42.8429 30.8105 42.6485 30.4922 42.7054 30.2927L43.4213 31.0812L42.824 30.1502L42.7007 29.3902C43.0515 30.1312 43.9523 30.6965 43.7247 31.5848ZM42.2977 31.2903C42.5727 31.2143 42.7718 31.39 42.9472 31.5848C42.824 31.5373 42.2977 31.5373 42.2977 31.2903ZM40.9703 31.637C40.7428 31.637 40.5437 31.5373 40.3683 31.4138C40.5437 31.5135 41.0177 31.561 41.269 31.2903C41.3733 31.5135 41.0983 31.6085 40.9703 31.637ZM39.0456 31.4613C38.946 31.4613 38.9223 31.561 38.7943 31.5135L38.9934 31.1668C39.093 31.238 39.0219 31.3615 39.0456 31.4613ZM47.4082 32.302C47.2091 32.0313 46.9342 31.9315 46.6829 31.808C45.6542 31.2903 44.8056 32.5965 44.0281 31.7605C44.3268 30.7962 43.5303 30.0077 42.8998 29.2667L43.6014 29.1432C43.426 28.9722 43.1274 28.7727 42.7765 28.8487C42.0512 28.6254 42.402 28.0364 42.402 27.4902C41.25 28.1077 42.805 29.0672 42.4779 29.984H42.402L42.5253 30.9957C42.3025 31.0195 42.0275 30.725 41.9991 30.7012L41.7004 31.1193C41.4017 30.9482 41.5013 30.6252 41.4017 30.402C41.3496 30.573 41.5013 30.82 41.2785 30.9197C41.1268 30.9435 41.0272 31.2428 40.8518 31.0432C41.25 30.1312 40.5531 28.8724 41.2026 28.2074C41.0035 28.3072 40.7285 28.8012 40.4251 28.3784C41.0509 29.243 40.501 30.079 40.6764 31.0432H40.5531C40.501 30.9957 40.4014 30.9435 40.4299 30.8722L40.0791 31.1193C39.88 30.9767 39.8373 30.782 39.8325 30.573C39.8088 30.7392 39.7377 30.8912 39.7045 31.0432C39.5291 30.9435 39.4059 31.2665 39.3063 30.9957C39.2542 30.896 39.3585 30.8485 39.3585 30.7487L39.1072 30.7012L39.3063 29.813L39.1831 29.9365L39.0598 29.813C39.112 29.2715 39.4343 28.7014 39.6097 28.3309C38.9318 29.0957 38.9602 30.1312 38.3345 30.9197L39.0124 30.0315C39.2115 30.2547 38.8891 30.5255 38.9365 30.82C38.709 31.0907 38.562 31.6608 38.0358 31.5135C37.7371 31.4138 37.9363 31.0955 37.8083 30.9197C38.1354 30.0552 38.8322 29.2905 39.2352 28.5019H39.0598C38.8607 29.0434 38.2065 28.6254 38.0311 29.0957L38.4577 29.2192C38.0311 29.7892 37.6565 30.3545 37.557 31.0432C37.5048 31.637 38.0832 31.6608 38.3345 31.884C37.8604 31.8603 37.2062 31.6608 36.6563 31.808C36.258 31.808 36.0068 32.378 35.6323 31.9315C35.1819 31.7605 34.4803 31.7083 34.1294 32.1025C33.8782 32.397 33.9019 32.891 34.2527 33.1143C34.9022 33.5561 35.9309 33.4326 36.533 33.1143L36.4097 32.9908C36.386 32.9148 36.2865 32.9148 36.2343 32.9908C35.6323 33.1381 34.6557 33.2853 34.2574 32.6963C34.1579 32.5015 34.2811 32.2545 34.5087 32.1025C36.0589 31.6085 36.6847 33.6796 38.216 33.4088C39.0408 32.7438 39.842 33.7033 40.7428 33.3613V33.1903C40.0648 33.2141 39.3917 33.1903 38.8891 32.7723C38.6379 32.6725 38.8133 32.4493 38.9413 32.3543C39.5671 31.7368 39.1167 32.8958 39.7188 32.8958L39.8847 32.7343C39.8563 32.7485 39.8278 32.7628 39.7946 32.7723C39.3917 32.6013 39.6429 32.2545 39.496 31.9315C39.093 31.8318 38.8939 32.3258 38.6426 32.4018C38.5431 32.302 38.6189 32.131 38.5905 32.0075C38.7659 31.7843 38.965 31.637 39.24 31.713C39.7899 30.6537 40.2924 31.9125 40.866 32.1073C41.141 31.713 41.4918 31.466 41.9422 31.295C41.9943 31.9838 43.17 31.5658 42.9188 32.4065C43.0183 32.3068 42.9425 32.0598 42.9709 32.0123C44.6207 31.5183 45.3223 33.8363 47.0005 33.2948C47.3561 33.1143 47.5837 32.6963 47.4082 32.302Z" fill="#FAFAFA"/>
<path d="M48.3562 46.5633C48.2565 46.6631 48.0807 46.6108 47.9287 46.6108C48.0332 46.5158 48.209 46.5871 48.3562 46.5633Z" fill="#FAFAFA"/>
<path d="M47.8836 46.9094C47.8599 47.0329 47.6845 46.9569 47.585 46.9806C47.6845 46.9569 47.7604 46.9094 47.8836 46.9094Z" fill="#FAFAFA"/>
<path d="M47.0298 46.9092H47.329V46.9805H47.0298V46.9092Z" fill="#FAFAFA"/>
<path d="M48.1786 47.2798C48.0554 47.3511 47.9037 47.3511 47.752 47.4033C47.8278 47.2038 48.0317 47.3036 48.1786 47.2798Z" fill="#FAFAFA"/>
<path d="M47.7049 47.6966L47.4062 47.7964L47.5058 47.6254C47.5532 47.6966 47.6291 47.6966 47.7049 47.6966Z" fill="#FAFAFA"/>
<path d="M40.8472 56.0385H40.8993V56.2095H40.8472V56.0385Z" fill="#FAFAFA"/>
<path d="M40.6693 61.417C40.5934 61.5927 40.6693 61.6877 40.7214 61.835L40.6693 61.417Z" fill="#FAFAFA"/>
<path d="M40.4953 62.7979C40.7466 62.7741 41.0452 62.8454 41.2728 62.7266L41.0215 62.3086C40.922 62.5081 41.2491 62.6316 40.9694 62.7266C40.6707 62.7266 40.8177 62.3323 40.5949 62.2088L40.3673 62.3086C40.3957 62.4796 40.2725 62.6981 40.4953 62.7979Z" fill="#FAFAFA"/>
<path d="M40.2436 62.3048L40.1914 62.7228L40.2436 62.7466L40.2957 62.3286L40.2436 62.3048Z" fill="#FAFAFA"/>
<path d="M41.1953 64.6746C41.2948 64.4514 41.5224 64.1806 41.3944 63.9099C41.3185 63.5394 40.816 63.7151 40.7923 63.4396C41.3423 63.1926 42.4184 63.0453 42.6934 63.7864C42.7171 64.2804 42.2667 64.5511 41.8685 64.6746H41.1953ZM38.2655 64.5749C38.2655 64.2281 38.1897 63.9336 38.0143 63.6106C38.6922 63.3161 39.7399 62.9218 40.3657 63.4871L40.067 63.8576C40.3941 63.9051 41.0957 63.6866 41.1953 64.1521C40.5458 64.9216 39.2184 64.6984 38.2655 64.5749ZM39.9437 65.2162L39.7683 65.0451H39.9959C39.9911 65.0926 40.0196 65.1924 39.9437 65.2162ZM42.646 64.7459C42.371 64.7981 42.0439 65.1164 41.7974 64.9169C42.1719 64.6461 42.646 64.6699 42.9494 64.2756C43.1722 63.9811 43.0489 63.5584 42.8261 63.3114C42.4231 62.9883 41.9254 62.9171 41.3991 62.8933C40.5221 63.6581 39.5692 62.4516 38.5689 63.0168C37.7677 64.1759 36.4403 62.9931 35.3879 63.7816C35.3357 63.9051 35.1888 64.0049 35.3879 64.0761C36.0658 64.0524 36.739 63.6819 37.5402 63.7294C37.8151 63.7769 38.1423 63.9526 38.0143 64.3231C37.8388 64.6461 37.5117 64.8409 37.1894 64.9169C37.4406 65.1116 37.891 65.0404 38.1897 64.9644C38.6922 65.7529 39.318 64.6176 39.8157 65.3349C39.9674 65.5582 39.8394 65.8052 39.6925 65.9762L40.5458 65.8527C40.6691 66.0237 40.9203 66.1234 40.8966 66.3467C41.072 66.1234 40.8729 65.9049 40.8445 65.6817L40.7923 65.7529C40.5174 65.7767 40.3183 65.6532 40.1144 65.5059C39.9153 65.2827 40.2377 65.1354 40.3657 64.9644C40.7402 64.7649 41.3185 64.8171 41.6172 65.1639C41.7168 65.4822 41.2901 65.8527 41.4418 66.1519L41.9917 65.3872C42.5417 64.9169 43.2196 64.8219 43.9686 64.7934C43.5988 64.5986 43.0489 64.6746 42.646 64.7459Z" fill="#FAFAFA"/>
<path d="M43.6016 63.4916C43.5258 63.5913 43.303 63.5391 43.3788 63.7386L44.3317 63.6911C44.7821 63.7148 45.057 64.5271 45.5358 64.1614C45.1281 63.4916 44.3507 63.4393 43.6016 63.4916Z" fill="#FAFAFA"/>
<path d="M27.0415 49.4644H54.0779V49.835H27.0415V49.4644Z" fill="#FAFAFA"/>
<path d="M42.4731 36.6685C42.5252 36.963 42.4209 37.0627 42.1744 37.0865C42.0227 36.9155 42.1222 36.545 42.4731 36.6685ZM42.8997 36.792C43.0514 36.716 43.0514 36.9155 43.1225 36.963C43.1462 37.1625 43.0988 37.21 42.9471 37.2575H42.7717C42.8002 37.115 42.6722 36.8157 42.8997 36.792ZM40.4962 40.0981C40.5483 39.8986 40.3729 39.8036 40.2971 39.6278C40.1454 39.1338 40.3208 38.6398 40.6716 38.2693L43.8526 38.5638C43.9048 38.6873 43.7768 38.7633 43.7294 38.8583C43.5539 39.3048 43.5302 39.9698 43.8526 40.3403C43.5255 39.6516 43.9048 38.882 44.2034 38.3928L42.3024 38.2693C42.0274 38.0698 42.0037 37.704 42.1033 37.4285C42.3545 37.1055 42.5536 37.5758 42.8286 37.5045C42.9803 37.3335 43.4307 37.6043 43.3027 37.21C43.3785 36.8395 43.2505 36.3977 42.7765 36.545C42.5489 36.2742 41.8994 36.6447 41.9231 36.1507L41.7999 37.8513C41.4728 38.4688 40.7237 37.951 40.2971 38.1458C40.4962 38.3168 40.2449 38.4688 40.1975 38.616C40.0979 39.1101 40.0221 39.8036 40.4962 40.0981Z" fill="#FAFAFA"/>
<path d="M51.7873 45.4371C51.7066 45.4513 51.6306 45.4608 51.5498 45.4751C51.6306 45.4703 51.7113 45.4561 51.7873 45.4371Z" fill="#FAFAFA"/>
<path d="M52.0877 45.333C51.9882 45.3805 51.8886 45.4137 51.7891 45.4375C51.9028 45.4185 52.0214 45.3995 52.1351 45.3805L52.0877 45.333Z" fill="#FAFAFA"/>
<path d="M37.2456 47.0427C37.3644 47.0617 37.4784 47.0855 37.5876 47.1045C37.4689 47.0617 37.3596 47.0475 37.2456 47.0427Z" fill="#FAFAFA"/>
<path d="M46.2044 41.1086C46.1428 41.1228 46.1096 41.0943 46.0812 41.0563C46.0717 41.0421 46.0575 41.0278 46.0433 41.0136C46.0338 41.0041 46.0243 40.9946 46.0148 40.9898C46.0101 40.9851 46.0053 40.9851 46.0053 40.9803L45.9437 41.1276C45.9342 41.1703 45.92 41.2036 45.9058 41.2273L45.9437 41.1276C45.9722 41.0136 45.9769 40.8616 45.8299 40.8806H45.9579C45.9437 40.9233 45.9722 40.9518 46.0053 40.9803C46.0101 40.9851 46.0101 40.9851 46.0148 40.9898C46.0243 40.9993 46.0338 41.0041 46.0433 41.0136C46.0575 41.0278 46.067 41.0421 46.0812 41.0516C46.1049 41.0041 46.1523 40.9756 46.1286 40.9281H46.2044V41.1086ZM48.4847 43.6499C48.0107 43.0324 48.333 42.1679 48.6602 41.5788C48.0107 41.4078 46.8824 41.7736 46.6833 41.0611L47.5082 41.2843C46.9582 40.9138 46.4083 40.4958 45.6545 40.5956C45.5028 40.6953 45.152 40.8426 45.3037 41.1133H45.4033C45.4791 41.0136 45.4791 40.8901 45.6024 40.8188C45.7019 40.7951 45.7541 40.8663 45.8252 40.9423C45.6261 42.0301 44.147 40.4721 44.147 41.8306C44.0711 42.3009 43.9716 42.9659 44.3982 43.3126C44.3745 43.2366 44.4504 43.1179 44.3224 43.0656C44.2465 42.5241 44.1707 41.8591 44.6969 41.4886C45.0714 41.4411 45.3748 41.5646 45.6972 41.5883C46.5458 41.7356 47.5508 41.5408 48.352 41.7831C48.077 42.0064 48.1529 42.3769 48.0533 42.6714C48.1102 43.0324 48.1576 43.4551 48.4847 43.6499Z" fill="#FAFAFA"/>
<path d="M52.1373 46.6153C51.5115 46.8624 50.9332 47.1569 50.2837 47.3326C50.8336 47.4086 51.2129 47.0096 51.7107 46.9859L51.9098 47.4039C52.0852 47.4514 52.4597 47.5274 52.5592 47.3279H52.0852C52.0093 47.2044 51.7865 47.1569 51.8339 46.9811C51.8861 46.8339 52.0852 46.7104 52.1373 46.6153Z" fill="#FAFAFA"/>
<path d="M30.1568 46.9794L28.5781 47.6206C29.2039 47.8201 29.7538 46.9319 30.2042 47.6966C30.5645 47.9199 31.1761 47.7061 31.3562 47.4971L30.6403 47.5636C30.2563 47.5541 30.2089 47.1314 30.1568 46.9794Z" fill="#FAFAFA"/>
<path d="M27.4534 47.8686C27.9796 48.2154 28.5817 48.3864 29.2548 48.3864C31.1748 48.3057 32.0092 47.7214 33.3366 47.5741C33.3888 47.7214 33.2371 47.9684 33.4599 48.0444C34.939 48.3912 36.7405 47.9209 38.1911 47.7499C38.1911 47.8734 38.1911 48.0207 38.267 48.0967C39.694 48.4909 41.2442 47.9256 42.6 47.7024V47.7499C43.4249 48.6382 45.0557 48.0967 46.0797 47.7499L46.2551 48.2202C47.758 48.9849 49.3082 48.1489 50.6356 47.6264L50.7588 47.7499C50.6593 47.7974 50.7067 47.8971 50.7067 47.9969C51.6833 48.6619 53.0581 48.0444 53.9351 47.5789C53.0344 47.8259 51.9346 48.3437 51.0054 47.8021C50.9295 47.6549 51.1049 47.5789 51.1049 47.4554C49.4504 47.5551 47.7248 49.0609 46.1983 47.8734L46.5491 47.4554C45.4208 47.8021 43.9938 48.3199 42.8181 47.7024C42.766 47.5314 42.9177 47.4554 42.9414 47.3319C42.0406 47.5551 41.1636 47.8496 40.2391 47.9969C39.5897 47.9209 38.7126 48.3912 38.2623 47.8021L38.6889 47.4079L36.8116 47.7024C35.7354 47.6026 34.5313 48.1489 33.4551 47.7024C33.403 47.5314 33.531 47.4554 33.5784 47.3319C32.2036 47.5551 30.9994 48.0967 29.5962 48.2202C28.8519 48.2202 28.046 48.2202 27.5671 47.7024C27.3917 47.8021 26.9271 47.9114 27.0646 47.9969C27.2258 47.9922 27.3254 47.9209 27.4534 47.8686Z" fill="#FAFAFA"/>
<path d="M41.3196 48.4623C41.6182 48.2153 41.8458 48.4623 41.9216 48.7568C42.5474 49.2746 43.4245 49.1273 44.2019 49.0513C44.951 49.2223 45.9276 47.5978 46.2547 49.0988C47.4067 49.7401 48.6061 48.9991 49.6822 48.6808C50.3839 48.2628 50.308 49.2983 50.9338 49.2223C52.0336 49.3696 53.1382 49.0751 53.8873 48.334L52.5077 48.9278C51.8298 48.9278 50.9054 49.2223 50.4028 48.6808C50.3033 48.4813 50.5545 48.41 50.6304 48.2865C49.3267 48.5098 48.1273 49.2746 46.6766 48.9753C46.4016 48.8756 45.8991 48.7045 45.9987 48.2865C44.9225 48.6333 43.7468 49.0988 42.519 48.7568C42.2677 48.7093 41.7936 48.41 41.9928 48.0918C40.5658 48.4385 39.191 49.1796 37.5886 48.7568C37.3611 48.657 37.0624 48.3103 37.3611 48.0918C36.4603 48.239 35.7065 48.7568 34.7821 48.8091C33.9809 48.7853 33.0517 49.1796 32.3785 48.6856C32.1794 48.486 32.4544 48.2913 32.4781 48.1678C31.3024 48.7853 29.8754 48.8851 28.4722 48.9801C29.0742 49.1796 29.847 49.1273 30.5012 49.0561C31.1033 49.1558 31.8286 48.2438 32.1273 48.9801C33.7534 49.5216 35.5311 48.8091 36.9865 48.4623V48.5858C38.1433 49.6973 39.9922 48.7616 41.3196 48.4623Z" fill="#FAFAFA"/>
<path d="M41.6899 52.9806H39.5186V51.8454H41.6946L41.6899 52.9806ZM41.5713 61.7874V61.9109H41.4481V61.7161C41.4955 61.7161 41.5239 61.7636 41.5713 61.7874ZM41.1968 53.3749L40.846 53.2514H41.1968V53.3749ZM40.5663 50.5296C41.2727 50.5438 41.3959 50.9761 41.3627 51.5794H39.7509C39.6893 51.0093 40.0164 50.5296 40.5663 50.5296ZM41.3201 56.8757C41.1684 57.0468 41.1968 56.529 41.0214 56.8757L41.2727 57.27L40.7227 57.2178L40.846 56.5765C41.0451 56.529 41.1968 56.6002 41.3201 56.7475V56.8757ZM41.1447 54.8047L41.0925 54.3107H41.1921C41.2916 54.4104 40.993 54.6337 41.2679 54.7287C41.2205 54.7572 41.1968 54.8047 41.1447 54.8047ZM41.8179 51.6079C41.8179 51.6079 41.8795 51.3941 41.6946 50.8383C41.3959 49.9928 39.8979 49.8978 39.4712 50.8383C39.2341 51.2849 39.3147 51.6696 39.3147 51.6696L27.3301 50.4583L37.4943 51.9404L27.3301 52.0116L37.4184 52.4296L27.2021 53.9592L37.8925 52.7764L27.2021 55.7357L38.5704 53.0234L27.4534 57.5645L37.7171 53.7169L27.9275 59.6403L39.3953 53.1279L39.5944 53.2514L39.2199 62.6234L39.6893 62.6709C39.4617 61.8349 39.5707 60.9276 39.5186 60.0156L39.694 59.8446C39.5186 59.5738 39.5186 59.0798 39.694 58.8328C39.4427 58.2153 39.6419 57.7213 39.7699 57.1038C39.4949 55.8972 40.0448 54.5862 39.7699 53.3797C39.9216 53.0851 40.4478 53.2087 40.7227 53.2562C40.7227 53.4272 40.4478 53.4794 40.5473 53.6742C40.5236 53.9972 40.6232 53.8452 40.846 53.9687C40.9456 53.8689 40.8697 53.5507 41.1447 53.6742C41.2964 53.7454 41.2679 53.8974 41.2679 54.0209L40.4146 54.1444C40.59 54.3439 41.1162 53.9972 41.0167 54.4437C41.1162 54.8142 40.6659 54.8854 40.4904 54.9139H40.8887C41.0404 55.0137 41.3627 54.9377 41.3153 55.2085C41.2916 55.2845 41.2158 55.2845 41.1399 55.2845V55.408C41.2158 55.408 41.2916 55.3842 41.3153 55.4555C41.2916 55.5267 41.3675 55.6502 41.2632 55.7025C40.8887 55.7262 40.6896 55.4555 40.7891 55.161H40.3624V55.7025C40.7133 55.6787 41.0641 55.6787 41.3153 55.9257C40.8128 56.149 41.5381 56.1965 41.2632 56.4672C41.0641 56.3437 40.7891 56.4197 40.5379 56.396C40.59 56.5907 40.0875 57.0373 40.3624 57.4078H41.0878C41.7136 57.555 40.9882 57.973 41.3864 58.2485C41.3106 58.2723 41.2869 58.3958 41.1873 58.372L41.0878 57.6595V58.125C41.0119 58.5715 40.5616 57.9778 40.4857 58.4195C40.8602 58.296 41.1115 58.372 41.4386 58.5905L41.1399 58.885C41.2632 58.9611 41.4907 58.9848 41.4386 59.1796C41.1873 59.3791 40.9882 59.3031 40.7133 59.2556V58.5905C40.59 58.5905 40.462 58.5905 40.3624 58.6665C40.1349 59.5073 41.1399 59.2081 41.4386 59.5548C41.1873 59.7781 41.6377 59.9253 41.4386 60.1486C41.1636 60.1723 41.2395 59.8541 41.1399 59.7306V59.8873C41.0878 60.2341 40.7654 59.9586 40.5379 60.1343V60.1818H41.1968C41.3201 60.2293 41.5476 60.2816 41.4955 60.4763C41.4196 60.6236 41.2679 60.5998 41.1447 60.5998L41.4955 60.8231C41.6187 60.9229 41.5476 61.0701 41.4433 61.1224L41.2679 60.8991V60.9466C41.1921 61.0939 41.0404 61.0701 40.8934 61.0701C40.5663 60.9941 40.7939 60.5998 40.718 60.3528H40.5426C40.2155 60.3766 40.2913 60.8469 40.3672 61.0701C40.6659 61.0701 41.1921 61.0464 41.4955 61.3171C41.4955 61.3646 41.5192 61.4406 41.4433 61.4881C41.4196 61.4644 41.3675 61.4121 41.3201 61.4121C41.0451 61.5356 41.3201 61.7066 41.3201 61.8301C41.1968 62.1769 40.7701 61.9299 40.5947 62.0011C40.718 62.2481 41.6899 61.8396 41.486 62.6281L42.017 62.6424L41.5619 53.2799L41.8131 53.1707L53.1624 59.2841L43.3017 53.6219L53.518 57.346C49.9387 55.8925 46.2836 54.5814 42.7802 52.9521L53.5275 55.5552L43.2069 52.6054L53.5607 52.8096L42.8324 52.1399L53.5607 51.7931L43.899 51.7694L53.5891 50.1638L41.8179 51.6079Z" fill="#FAFAFA"/>
<path d="M44.7504 47.5036H44.4517V47.4561H44.7504V47.5036ZM43.8496 47.6271V47.5036H44.2004C44.1009 47.5749 43.9966 47.6509 43.8496 47.6271ZM43.6742 47.4039C43.7264 47.6984 43.3234 47.5749 43.2476 47.6984C43.7216 47.7744 44.3237 47.7744 44.7978 47.6984C45.0727 47.1046 45.6985 47.5986 46.073 47.2804C45.3003 47.4039 44.4233 47.2566 43.6742 47.4039Z" fill="#FAFAFA"/>
<path d="M39.5968 47.5029H39.3977V47.4554H39.5968V47.5029ZM40.0708 47.4507C40.123 47.5267 40.2226 47.5742 40.1941 47.6977L40.3695 47.4507C40.8199 47.4744 41.2228 47.6217 41.6211 47.3272C40.8199 47.3272 40.0187 47.3272 39.2175 47.3272C39.3171 47.5504 39.0421 47.6977 38.8667 47.6217V47.7452C39.2175 47.6454 39.6679 47.9684 39.995 47.6977C40.0708 47.6977 39.7437 47.6739 39.7674 47.4982C39.8243 47.4032 39.9713 47.4744 40.0708 47.4507Z" fill="#FAFAFA"/>
<path d="M45.9065 43.4802C45.8069 44.416 45.5557 45.404 45.6552 46.2686C45.8069 45.3565 45.8306 44.2925 45.9065 43.4802Z" fill="#FAFAFA"/>
<path d="M41.396 52.1914H41.5714C41.5193 52.6094 41.2206 52.1154 41.0974 52.4384L40.6707 52.3149C40.4716 52.4859 40.794 52.6854 40.5948 52.8564C40.3673 52.7329 40.8461 52.4147 40.4194 52.3862C40.4716 52.0917 40.9457 52.3387 40.8935 51.9682C40.8698 52.1677 41.1732 52.3387 41.396 52.1914Z" fill="#FAFAFA"/>
<path d="M41.5719 52.7338L41.4487 52.9048C41.3965 52.7338 41.1216 52.805 40.9746 52.7813V52.6815C41.1216 52.786 41.3728 52.71 41.5719 52.7338Z" fill="#FAFAFA"/>
<path d="M42.2867 45.9115L43.2633 46.3058C42.9362 46.3295 41.9122 46.624 42.2867 45.9115ZM41.8079 46.3058L41.86 45.959C41.9833 46.035 41.9122 46.206 41.9359 46.3058H41.8079ZM38.2049 46.13V45.8355C38.3566 45.9353 38.5036 45.9828 38.6316 46.13H38.2049ZM37.8541 46.0825H37.7308V45.788C37.783 45.7643 37.8825 45.8355 37.8541 45.9115V46.0825ZM34.8011 46.377L35.4031 46.5005L35.3794 46.548L34.7774 46.4245C34.7726 46.4293 34.8011 46.377 34.8011 46.377ZM35.6259 46.8995L35.6781 46.9755L35.3273 46.8995H35.6259ZM35.8014 47.2653H36.0526V47.3128H35.8014V47.2653ZM36.3513 47.023L36.4034 47.0943L35.9294 46.9708C35.9246 46.9708 36.3513 47.023 36.3513 47.023ZM31.8286 45.731C32.7388 46.2868 33.6301 46.89 34.4739 47.6121C35.1993 47.8353 35.6022 47.4411 36.3513 47.4886C36.2754 46.9233 36.9012 47.6358 37.252 47.3176C37.1999 47.194 36.4508 47.3413 36.5741 46.9708C36.8443 47.0705 37.0719 47.023 37.3089 47.0325C36.7495 46.9328 36.1048 46.8283 35.5501 46.6003L35.6734 46.5005C37.6834 46.9708 38.7169 46.8283 40.1818 46.8948C38.2002 46.6763 36.0005 46.6003 34.1231 45.9068C38.4277 46.7475 43.1874 46.719 47.8191 46.5955C47.4446 46.9423 47.0179 46.719 46.615 46.795C46.1646 46.8948 45.6905 46.795 45.3634 46.966C45.6905 47.0658 46.1125 46.7428 46.4396 47.0183L46.5628 46.8948C46.6624 46.9185 46.7904 46.8473 46.8615 46.9708L46.5628 47.194C46.6624 47.3651 46.7619 47.1465 46.9136 47.194C47.1649 47.6121 47.4873 46.871 47.639 47.3936C47.4636 47.5646 47.0132 47.5408 46.9611 47.4933L47.2123 47.6928L46.9136 47.9873H47.5631C48.5919 48.1108 49.2414 46.8995 49.9667 46.3105H50.2654C49.7913 46.9518 49.0897 47.4696 48.5397 47.9873C49.4405 47.5456 50.3649 46.7808 50.9433 45.9163C49.54 46.1158 48.0135 46.2345 46.6102 46.263C47.7006 46.0873 48.8005 45.9163 49.8956 45.7405H48.2174L47.2123 45.845C47.2502 45.807 47.2882 45.7738 47.3308 45.7405H47.0938C46.9658 45.8593 46.8331 45.959 46.6624 45.9685C46.6434 45.8925 46.6292 45.8165 46.6197 45.7358L46.2926 45.7405C46.2831 45.9068 46.2737 46.0825 46.2642 46.263L46.2736 45.7405H45.9039C45.8896 45.9115 45.8849 46.0873 45.8897 46.263C45.7379 46.3628 45.5388 46.3153 45.3634 46.3153L45.4535 45.7405H45.3065L45.2402 46.3153L44.8135 46.3913L44.9462 45.7453H44.7566C44.7187 45.921 44.6808 46.0968 44.6334 46.2678C44.3205 46.0065 44.3584 45.9068 44.4579 45.7453H43.9649C44.036 45.9543 44.1214 46.149 44.2067 46.32C43.671 46.3723 43.2348 46.0113 42.756 45.7453H41.0968L41.5519 45.8023V46.2535C41.2532 46.3295 40.8028 46.4008 40.5516 46.206C40.5042 45.9828 40.727 45.7975 40.9024 45.731H40.3951C40.2719 45.8593 40.2434 46.0398 40.1818 46.206C40.0728 46.0635 39.9827 45.902 39.9068 45.731H39.5797C39.6556 45.9068 39.7409 46.0825 39.831 46.2535C39.5892 46.1728 39.4897 45.959 39.4138 45.731L39.0488 45.7263L39.2811 46.2013C38.9729 46.13 38.7027 45.94 38.4325 45.731L37.4891 45.7263C37.4891 45.7595 37.4843 45.7928 37.4796 45.8308V46.0018C36.9865 46.0018 36.4271 46.073 36.119 45.7263L35.7492 45.7215V45.7785C35.5928 45.8213 35.4742 45.7928 35.3842 45.7215L31.8286 45.731Z" fill="#FAFAFA"/>
<path d="M34.5513 45.6128C34.3522 45.4418 34.6035 45.2898 34.6509 45.1188C34.8263 45.2186 34.8263 45.4893 34.9022 45.6603C34.7504 45.7126 34.703 45.5416 34.5513 45.6128ZM32.8494 45.0713V44.9003C33.1481 44.9241 33.423 45.0476 33.6506 45.2471C33.4752 45.2708 33.0722 45.2186 32.8494 45.0713ZM32.0245 44.7246H31.9013C31.9534 44.6771 32.0008 44.5773 32.0767 44.6011C32.0956 44.6533 32.0482 44.6771 32.0245 44.7246ZM30.645 44.2305L31.7211 44.354C31.522 44.9003 30.9721 44.354 30.645 44.2305ZM47.3371 45.7316C47.9913 45.2281 48.949 45.6508 49.7976 45.4181C49.1433 45.2946 48.3943 45.1711 47.6927 45.3183C47.4556 45.3326 47.285 45.5511 47.1001 45.7268L47.3371 45.7316ZM40.9087 45.7316C40.9276 45.7221 40.9419 45.7173 40.9608 45.7126L41.1078 45.7316H42.767C42.5774 45.6223 42.3783 45.5321 42.165 45.4893C41.5913 45.4656 40.9893 45.2423 40.4867 45.6603C40.4536 45.6793 40.4251 45.7031 40.4014 45.7268L40.9087 45.7316ZM36.1205 45.7316C36.1158 45.7268 36.1063 45.7221 36.1016 45.7126C36.0494 45.5131 36.2011 45.3896 36.3528 45.2423C36.751 45.1473 37.4811 45.2328 37.4859 45.7268H38.4293C37.9457 45.3516 37.4669 44.8956 36.8269 44.8956C36.3244 44.7483 35.9262 45.0951 35.7507 45.4893V45.7316H36.1205ZM49.039 43.3565C49.2619 44.1925 49.9398 44.9146 50.5229 45.4893L48.2236 45.7316H49.9019C50.4755 45.6413 51.0444 45.5511 51.6133 45.4608C50.8785 45.4988 50.2622 44.8956 49.7976 44.354C49.6411 44.0595 49.4278 43.7033 49.3519 43.3518L49.039 43.3565ZM46.8062 43.3565C46.8346 43.4183 46.7445 43.5228 46.7967 43.5893C47.2233 43.2663 47.6216 43.689 48.0719 43.6368C47.8965 43.5513 47.6927 43.4515 47.4699 43.3518L46.8062 43.3565ZM46.0382 43.3565C46.1662 44.1735 45.9718 44.9288 45.9102 45.7316H46.2799L46.3179 43.5893L46.4411 43.7603C46.3795 44.4918 46.3368 45.0618 46.2989 45.7268L46.626 45.7316C46.498 44.9763 46.5122 44.0833 46.6592 43.3565C46.6544 43.3565 46.0382 43.3565 46.0382 43.3565ZM45.5783 43.3565L45.3081 45.7316H45.455L45.8248 43.3565H45.5783ZM45.2749 43.3565C45.0568 44.1308 44.9336 44.9336 44.7629 45.7316H44.9525L45.4456 43.3565H45.2749ZM40.4109 43.3565C41.6056 43.556 42.895 43.5988 44.1656 43.6415C43.6441 44.2115 43.7342 45.0428 43.9712 45.7363L44.4642 45.7316C44.5259 45.6318 44.6017 45.5131 44.6396 45.3183L45.2702 43.3565H44.9336C44.8956 43.442 44.9051 43.537 44.9904 43.6415L44.2651 45.6651L44.1656 45.4181C44.0139 44.7246 44.0897 43.9645 44.6396 43.4705C44.2035 43.4088 43.7342 43.4135 43.2933 43.3613L40.4109 43.3565ZM39.1783 43.3565C38.69 43.9075 38.7659 44.8243 38.9318 45.4893L39.0503 45.7316H39.4153C39.3727 45.6081 39.3347 45.4798 39.2826 45.3658C39.1309 44.8481 39.055 44.0833 39.3584 43.5893C39.183 44.3445 39.311 45.0666 39.5813 45.7268L39.9084 45.7316C39.6002 45.0191 39.5718 44.1023 39.7946 43.3565H39.1783ZM27.7104 43.3565C29.071 44.1925 30.4696 44.9098 31.8302 45.7363L35.3904 45.7316C35.1629 45.5606 35.0965 45.1283 34.9543 44.9003C34.9353 44.3873 34.959 43.8363 35.1534 43.3613H34.85C34.6936 44.0738 34.722 44.9288 34.1294 45.4941C33.9303 44.9526 33.3519 44.8291 32.9253 44.6058C33.077 44.164 33.2808 43.7508 33.5321 43.3565H33.2713C32.9869 43.8743 32.7404 44.4063 32.5507 44.9478C32.527 44.5013 31.9487 44.107 31.5504 43.936C31.0479 43.7888 30.5502 43.9835 30.0476 44.012C30.37 43.803 30.6924 43.5845 31.0147 43.3565L30.5549 43.3613C30.4459 43.442 30.3321 43.518 30.223 43.594C29.8201 44.1593 29.1706 43.765 28.7724 43.4705C28.8482 43.4325 28.9241 43.3993 28.9999 43.3613H28.5922C28.5496 43.3803 28.5116 43.404 28.469 43.423C28.4216 43.404 28.3742 43.3803 28.3267 43.3613L27.7104 43.3565Z" fill="#FAFAFA"/>
<path d="M37.9061 42.6521V42.8231L37.8539 42.6521H37.9061ZM41.5612 43.0464L41.6371 43.1176L41.4616 43.0464H41.5612ZM41.9831 42.8754C41.9594 42.9514 42.0353 43.0701 41.931 43.1224L41.8551 42.8279C41.9357 42.7994 41.9594 42.8516 41.9831 42.8754ZM36.3037 40.5003L36.3559 40.3768L36.4791 40.5003H36.3037ZM34.6018 41.7638L36.3559 39.3935L36.408 40.0348L34.6018 41.7638ZM37.7781 37.7167C37.8777 37.8877 37.8777 38.2582 37.6027 38.3817H37.304L37.7781 37.7167ZM38.2569 37.0279C38.4323 37.0279 38.6077 36.9804 38.6314 37.199C38.6314 37.408 38.5319 37.4222 38.3802 37.4222H38.2048L38.2569 37.0279ZM38.9822 37.199C39.1577 37.123 39.2809 37.275 39.2335 37.4222C39.2857 37.5932 39.1577 37.617 39.0581 37.6692H38.859C38.9064 37.522 38.7547 37.275 38.9822 37.199ZM46.8661 37.7167H47.0415C47.0652 37.864 47.0415 38.0635 46.8661 38.0872V37.7167ZM47.4682 37.9637C47.6436 37.9162 47.6436 38.0397 47.691 38.1347C47.7147 38.1822 47.6673 38.2345 47.6388 38.2582H47.4634V37.9637H47.4682ZM49.3502 43.3551C49.2886 43.0796 49.3123 42.8136 49.4972 42.5761C49.1464 42.6996 48.6202 42.6521 48.4685 42.9941C48.6676 43.0701 48.7671 42.8706 48.971 42.9466C48.9805 43.0844 49.0042 43.2174 49.0374 43.3504L49.3502 43.3551ZM45.2685 43.3551L45.2874 43.2934C45.2827 43.3124 45.2779 43.3361 45.2685 43.3551H45.4391L45.4628 43.2459H45.5861L45.5719 43.3551H45.8184L45.8374 43.2459H46.0128C46.0175 43.2839 46.027 43.3171 46.0317 43.3551H46.6528C46.6575 43.3361 46.6622 43.3124 46.667 43.2934C46.7523 43.3029 46.7902 43.3219 46.8045 43.3551H47.4729C46.8803 43.0939 46.1597 42.8611 45.4676 42.9466C45.2969 43.0464 45.0125 43.1794 44.9319 43.3551C44.9319 43.3599 45.2685 43.3551 45.2685 43.3551ZM35.147 43.3551C35.2039 43.2126 35.2797 43.0749 35.3745 42.9466L39.2288 43.2934C39.2098 43.3124 39.1908 43.3314 39.1719 43.3504L39.7929 43.3551C39.8024 43.3171 39.8166 43.2839 39.8308 43.2459C40.0205 43.2886 40.2148 43.3219 40.4092 43.3551H43.2916C43.0261 43.3266 42.7701 43.2696 42.5378 43.1699C42.5615 43.0464 42.4857 42.8991 42.5899 42.8231C42.8412 42.7471 42.9408 42.9941 43.1399 42.9941C42.8412 42.7471 42.4904 42.5476 42.1633 42.3528C41.7366 42.1533 41.0634 41.9348 40.6605 42.3528C40.5088 42.5523 40.4329 42.8231 40.7363 42.9466C40.7885 42.7994 40.6131 42.4526 40.9117 42.3528C41.1108 42.3766 41.3858 42.2768 41.5138 42.4526L41.2151 43.1699C40.1864 42.9989 39.2382 43.0701 38.2095 42.8754C38.1858 42.6758 38.4608 42.8278 38.4608 42.7043C38.2332 42.3861 37.8871 42.3101 37.6074 42.1106C37.2045 41.8873 36.6308 41.8636 36.28 42.2341C36.2042 42.3338 36.1568 42.5808 36.3559 42.6521L36.5834 42.1581C36.7825 42.2056 37.1855 42.0583 37.3609 42.2816C37.2092 42.4288 37.4368 42.7281 37.1855 42.8231L34.9574 42.6996V42.8231H35.0332C34.9479 42.9846 34.8957 43.1651 34.8531 43.3551H35.147ZM31.0083 43.3551C32.843 42.0441 34.6302 40.4575 36.3985 38.9042C35.3603 40.3008 34.1325 41.7686 33.2649 43.3599H33.5257C34.1799 42.3196 35.1328 41.4266 36.152 40.5858L36.2753 40.6855C35.9482 41.2271 35.4219 41.8968 35.8012 42.5381L35.9766 41.4788C36.4791 39.8733 38.0057 41.2841 39.1055 40.9373L39.3568 41.1083C39.2572 41.1843 39.2572 41.2793 39.1577 41.3553C38.9585 41.8256 39.0059 42.4906 39.3568 42.8849C39.1814 42.4383 39.1055 41.7258 39.4089 41.2793C39.6602 41.7971 39.608 42.6141 40.1342 42.8326C39.9825 42.4146 39.6602 42.0678 39.7076 41.5738C39.7834 41.1321 39.7597 40.5858 40.1817 40.3388C41.3336 40.5383 42.5094 40.6618 43.7372 40.6855L43.9648 40.8851C43.5144 41.5263 43.5618 42.4383 43.9126 43.1319C43.9126 42.6616 43.5618 41.4028 44.2113 40.8851C44.5384 40.4385 44.6854 40.9848 44.9366 41.1083C44.9129 41.0323 44.9888 40.9088 44.8608 40.8851C44.6854 40.2438 44.8845 39.65 45.3633 39.2083L48.3689 39.5028C48.3452 39.6738 48.1698 39.7735 48.1177 39.9208C47.9185 40.3388 47.9659 40.9563 48.1698 41.3506C48.0939 40.562 48.2694 39.897 48.7197 39.327C48.0181 39.156 46.8661 39.5503 46.667 38.6857C46.7428 37.6265 47.3165 38.9565 47.8711 38.4387C47.8711 38.1917 47.9233 37.8972 47.819 37.674C47.6957 37.6977 47.544 37.6265 47.4682 37.7215C47.3923 37.674 47.2928 37.598 47.3449 37.4982C47.0699 37.275 46.6433 37.7215 46.6196 37.2037C46.3683 37.6455 46.5959 38.2915 46.4442 38.8092C46.0697 39.403 45.3917 38.909 44.8655 38.9803L44.9414 39.2748C44.5905 39.6453 44.6142 40.1868 44.4673 40.6333L42.5378 40.4623C42.4145 40.2913 42.1633 40.1915 42.1633 39.992C42.4904 39.8923 42.8649 40.3625 43.1399 40.2865C42.6137 39.8685 42.04 39.3745 41.3384 39.5693C41.1867 39.669 40.8359 39.8163 40.9639 40.087L41.2151 39.7925C41.3905 39.745 41.6892 39.669 41.8172 39.8685C41.4427 40.8803 39.6649 39.574 39.5369 40.7568C39.1861 40.7805 38.8353 40.733 38.5082 40.6808C38.3091 40.6333 38.1811 40.3863 38.2095 40.2865C38.4371 40.2865 38.6362 40.3863 38.8116 40.5098C38.4134 40.0918 37.9108 39.8448 37.3088 39.916C37.1097 40.0158 36.8584 40.2628 37.0101 40.4575C37.2851 40.5573 37.2092 40.1868 37.4368 40.087C37.56 40.1108 37.7117 40.0633 37.7876 40.2105L37.4368 40.6285C37.1097 40.676 36.8631 40.5525 36.5882 40.505C36.7636 40.2343 36.5123 39.764 36.5882 39.3223C36.8868 37.9162 38.3897 39.0515 39.3662 38.8045L39.5416 38.9755C39.3141 39.422 39.0391 40.1108 39.4184 40.505C39.3425 39.8115 39.5179 39.2225 39.9683 38.7285L38.3897 38.5575C38.1384 38.358 38.1384 38.0397 38.1621 37.7167C38.3612 37.5457 38.6125 37.6692 38.6883 37.9162C38.9396 37.8925 39.2145 37.9637 39.4137 37.8402C39.4374 37.5932 39.3615 37.2987 39.4658 37.0755C39.2667 36.9282 39.0913 37.0279 38.8637 37.0755C38.84 36.3867 37.963 37.1752 38.0388 36.4342L37.9156 37.3225C35.5405 39.498 33.0942 41.5596 30.5627 43.3551H31.0083ZM28.9935 43.3551C31.2359 42.2578 33.3171 40.771 35.3745 39.1988C33.1085 40.6808 30.9657 42.1343 28.5858 43.3551H28.9935ZM28.3203 43.3551C28.1117 43.2554 27.8889 43.1319 27.6851 43.1699V43.3409C27.6898 43.3456 27.6993 43.3504 27.704 43.3551H28.3203Z" fill="#FAFAFA"/>
</g>
<defs>
<clipPath id="clip0_2432_72781">
<rect width="73" height="73" fill="white" transform="translate(5.07422 4.5)"/>
</clipPath>
</defs>
</svg>
