<svg width="48" height="49" viewBox="0 0 48 49" fill="none" xmlns="http://www.w3.org/2000/svg">
<rect x="0.75" y="1.03223" width="46.5" height="46.5" rx="23.25" stroke="url(#paint0_linear_452_3259)" stroke-width="1.5"/>
<g clip-path="url(#clip0_452_3259)">
<path d="M11.7245 23.7816L12.43 23.7816C12.6461 23.9445 12.6947 24.1481 12.9719 24.2565C13.9546 24.6421 15.4411 23.9491 16.2825 23.4341C18.7799 21.9056 21.1276 19.3576 22.8275 16.9863C23.1238 16.5731 23.4404 16.1166 23.6729 15.6666C23.7603 15.4978 23.7714 15.262 23.981 15.1838C24.1564 15.1668 24.2411 15.5431 24.3114 15.6739C24.6668 16.3373 25.2363 17.0947 25.6882 17.7088C27.0354 19.5382 28.5666 21.2198 30.3973 22.5802C31.5323 23.4236 33.4655 24.6493 34.9237 24.2591C35.216 24.1809 35.3454 23.9996 35.5287 23.7816L36.267 23.7816C36.3905 24.2854 35.7855 24.6591 35.3868 24.8207C34.4074 25.2175 32.9801 25.1577 31.9869 24.8293C29.161 23.8959 26.7503 21.4517 24.9663 19.1526C24.9124 19.0837 24.7732 18.7979 24.6845 18.8603C24.6773 18.8859 24.7173 18.8997 24.7173 18.9089L24.7173 33.247C24.7173 33.2871 24.5249 33.3561 24.4723 33.3626C24.2549 33.3889 23.6723 33.3876 23.4535 33.3626C23.3445 33.3501 23.2079 33.2621 23.2079 33.1485L23.2079 18.8603C22.6206 19.5664 22.0491 20.2897 21.4199 20.9603C19.4834 23.0255 16.1203 25.8231 13.0612 25.0191C12.5403 24.8818 11.6431 24.422 11.7239 23.7809L11.7245 23.7816Z" fill="url(#paint1_linear_452_3259)"/>
</g>
<defs>
<linearGradient id="paint0_linear_452_3259" x1="35.6" y1="2.68223" x2="10.2667" y2="44.8156" gradientUnits="userSpaceOnUse">
<stop stop-color="#F0C94F"/>
<stop offset="1" stop-color="#CFAE44"/>
</linearGradient>
<linearGradient id="paint1_linear_452_3259" x1="12.947" y1="19.8846" x2="30.6462" y2="34.2492" gradientUnits="userSpaceOnUse">
<stop stop-color="#F0C94F"/>
<stop offset="1" stop-color="#CFAE44"/>
</linearGradient>
<clipPath id="clip0_452_3259">
<rect width="18.1978" height="24.5642" fill="white" transform="translate(36.2822 15.1836) rotate(90)"/>
</clipPath>
</defs>
</svg>
